<svg width="20" height="20" viewBox="0 0 20 20" fill="none" xmlns="http://www.w3.org/2000/svg">
<circle cx="25" cy="25" r="25" fill="#FEE500"/>
<path d="M25.0724 12.0657C17.2943 12.0657 11.0217 17.0837 11.0217 23.1756C11.0217 27.1299 13.6311 30.5924 17.5452 32.5695L16.2205 37.5174C16.1955 37.5915 16.1916 37.6711 16.2094 37.7473C16.2271 37.8235 16.2657 37.8933 16.3208 37.9488C16.4012 38.0198 16.5047 38.059 16.6119 38.0592C16.7008 38.0521 16.7851 38.017 16.8527 37.9589L22.5533 34.1151C23.3947 34.2312 24.243 34.2915 25.0924 34.2957C32.8604 34.2957 39.143 29.2776 39.143 23.1756C39.143 17.0737 32.8403 12.0657 25.0724 12.0657Z" fill="#392020"/>
<path d="M15.9391 21.4194H14.4035C14.2132 21.4249 14.0252 21.3762 13.8616 21.2789C13.7889 21.2334 13.7264 21.1733 13.6781 21.1025C13.6297 21.0317 13.5965 20.9516 13.5806 20.8674C13.5757 20.814 13.5757 20.7603 13.5806 20.7069C13.5758 20.6069 13.5952 20.5073 13.6371 20.4164C13.6791 20.3256 13.7423 20.2462 13.8214 20.185C13.9964 20.0583 14.2076 19.9913 14.4236 19.9942H19.0503C19.2421 19.9875 19.4313 20.0401 19.5922 20.1448C19.6666 20.1883 19.7304 20.2478 19.779 20.319C19.8276 20.3902 19.8598 20.4712 19.8732 20.5563C19.8781 20.6064 19.8781 20.6568 19.8732 20.7069C19.878 20.8083 19.8586 20.9093 19.8167 21.0018C19.7749 21.0942 19.7117 21.1754 19.6324 21.2387C19.4617 21.3653 19.2525 21.4291 19.0402 21.4194H17.5549V26.6984C17.5609 26.8109 17.5435 26.9233 17.5038 27.0287C17.464 27.1341 17.4028 27.2301 17.324 27.3106C17.2485 27.3876 17.1577 27.4479 17.0574 27.4877C16.9572 27.5274 16.8497 27.5457 16.7419 27.5414C16.5535 27.5468 16.369 27.4866 16.2201 27.3709C16.0783 27.2579 15.9821 27.0975 15.9491 26.9192C15.9392 26.8459 15.9392 26.7717 15.9491 26.6984L15.9391 21.4194Z" fill="#FEE500"/>
<path d="M20.3162 20.3856C20.3603 20.2205 20.464 20.0775 20.6072 19.9841C20.7599 19.8976 20.9338 19.8559 21.109 19.8637H21.4904C21.6764 19.8571 21.8605 19.9022 22.0223 19.9942C22.1938 20.1095 22.3156 20.285 22.3636 20.486L24.3708 26.1564C24.4228 26.3044 24.4664 26.4552 24.5013 26.6081C24.5047 26.6716 24.5047 26.7352 24.5013 26.7987C24.5047 26.8966 24.4866 26.9939 24.4485 27.0841C24.4104 27.1742 24.353 27.255 24.2805 27.3206C24.2101 27.3927 24.1257 27.4495 24.0325 27.4875C23.9392 27.5255 23.8392 27.5438 23.7385 27.5414C23.5837 27.5568 23.4282 27.5197 23.2972 27.4359C23.1661 27.3522 23.067 27.2267 23.0159 27.0798L22.5944 25.8454H19.9549L19.5334 27.0798C19.4835 27.2296 19.3832 27.3575 19.2496 27.4417C19.116 27.5259 18.9574 27.5611 18.8007 27.5414C18.631 27.5459 18.4648 27.4928 18.329 27.3908C18.1967 27.2857 18.1075 27.1358 18.0781 26.9694C18.0728 26.9127 18.0728 26.8555 18.0781 26.7987C18.0609 26.6991 18.0609 26.5974 18.0781 26.4977C18.0781 26.3873 18.1484 26.2668 18.1885 26.1564L20.3162 20.3856ZM21.3198 21.7004L20.3664 24.7113H22.2632L21.3198 21.7004Z" fill="#FEE500"/>
<path d="M24.7311 20.707C24.7209 20.4818 24.8003 20.2617 24.9519 20.0948C25.029 20.0171 25.1215 19.9563 25.2235 19.9166C25.3255 19.8768 25.4347 19.8588 25.544 19.8639C25.732 19.8617 25.9155 19.9217 26.0659 20.0345C26.2053 20.1523 26.2979 20.316 26.3268 20.4962C26.3367 20.5661 26.3367 20.6371 26.3268 20.707V25.986H29.0868C29.2781 25.9835 29.4661 26.0357 29.6287 26.1365C29.7018 26.1815 29.7646 26.2415 29.813 26.3124C29.8614 26.3833 29.8944 26.4635 29.9098 26.548C29.9098 26.548 29.9098 26.6484 29.9098 26.6986C29.9145 26.7985 29.8951 26.8981 29.8532 26.9889C29.8113 27.0798 29.748 27.1592 29.6689 27.2205C29.4939 27.3472 29.2827 27.414 29.0667 27.4111H25.6745C25.4584 27.425 25.2437 27.3688 25.0623 27.2506C24.9 27.1293 24.7919 26.9491 24.7612 26.7488C24.7539 26.6385 24.7539 26.5278 24.7612 26.4175L24.7311 20.707Z" fill="#FEE500"/>
<path d="M30.0906 20.707C30.0846 20.4824 30.1634 20.2639 30.3114 20.0948C30.4618 19.9581 30.6548 19.8774 30.8577 19.8665C31.0606 19.8555 31.2611 19.9149 31.4254 20.0346C31.5679 20.1512 31.6639 20.3149 31.6964 20.4962C31.7013 20.5663 31.7013 20.6369 31.6964 20.707V23.1658L34.2355 20.2352C34.3334 20.1352 34.4373 20.0415 34.5467 19.9543C34.6497 19.8929 34.7679 19.8615 34.8879 19.8639C35.0633 19.8629 35.2348 19.9155 35.3797 20.0145C35.4479 20.0604 35.5062 20.1197 35.551 20.1887C35.5958 20.2576 35.6263 20.3349 35.6406 20.4159C35.6447 20.4358 35.6447 20.4563 35.6406 20.4762C35.6357 20.4994 35.6357 20.5232 35.6406 20.5464C35.6402 20.652 35.6126 20.7558 35.5603 20.8475C35.507 20.9447 35.4431 21.0355 35.3696 21.1184L33.7036 22.9451L35.7108 26.0562V26.1566C35.8151 26.3004 35.8963 26.4596 35.9517 26.6284V26.6785C35.9633 26.7948 35.9466 26.9122 35.9029 27.0205C35.8592 27.1289 35.7898 27.225 35.7008 27.3007C35.5334 27.4273 35.3286 27.4944 35.1187 27.4915C34.9793 27.4972 34.8408 27.466 34.7173 27.4011C34.5836 27.3114 34.4735 27.191 34.3961 27.0498L32.5294 24.039L31.6362 24.9724V26.6483C31.6422 26.8729 31.5633 27.0915 31.4154 27.2605C31.3361 27.3381 31.2417 27.3986 31.1382 27.4383C31.0346 27.478 30.924 27.4961 30.8132 27.4915C30.628 27.4953 30.4472 27.435 30.3014 27.3208C30.1596 27.2078 30.0634 27.0475 30.0304 26.8692C30.0205 26.796 30.0205 26.7216 30.0304 26.6483L30.0906 20.707Z" fill="#FEE500"/>
</svg>
